<svg xmlns="http://www.w3.org/2000/svg"  viewBox="0 0 32 32" width="32px" height="32px"><path d="M 9 2 L 9 4 L 21 4 L 21 7 L 9 7 L 9 9 L 12 9 L 12 20 L 14 20 L 14 9 L 17 9 L 17 20 L 19 20 L 19 9 L 21 9 L 21 21.792969 C 20.625289 22.036861 19.635986 22.633935 18.279297 24.042969 C 17.461191 24.89264 16.624223 25.938445 15.998047 27.146484 C 15.37233 25.944873 14.535887 24.90343 13.720703 24.054688 C 12.128262 22.39669 10.529297 21.402344 10.529297 21.402344 L 9.4707031 23.097656 C 9.4707031 23.097656 10.871738 23.975902 12.279297 25.441406 C 13.686856 26.90691 15 28.896521 15 31 L 17 31 C 17 28.878562 18.314077 26.890586 19.720703 25.429688 C 21.127329 23.968788 22.525391 23.099609 22.525391 23.099609 L 23 22.806641 L 23 2 L 9 2 z"/></svg>